<svg width="48" height="48" viewBox="0 0 48 48" fill="none" xmlns="http://www.w3.org/2000/svg">
<mask id="mask0_43_3558" style="mask-type:alpha" maskUnits="userSpaceOnUse" x="0" y="0" width="48" height="48">
<rect width="48" height="48" fill="#D9D9D9"/>
</mask>
<g mask="url(#mask0_43_3558)">
<path d="M9 42C8.175 42 7.46875 41.7063 6.88125 41.1188C6.29375 40.5312 6 39.825 6 39V9C6 8.175 6.29375 7.46875 6.88125 6.88125C7.46875 6.29375 8.175 6 9 6H29.45V9H9V39H39V18.6H42V39C42 39.825 41.7063 40.5312 41.1188 41.1188C40.5312 41.7063 39.825 42 39 42H9ZM35 17.1V13.05H30.95V10.05H35V6H38V10.05H42.05V13.05H38V17.1H35ZM12 33.9H36L28.8 24.3L22.45 32.65L17.75 26.45L12 33.9Z" fill="#2D4D52"/>
</g>
</svg>
