<svg width="17" height="16" viewBox="0 0 17 16" fill="none" xmlns="http://www.w3.org/2000/svg">
<mask id="mask0_139_788" style="mask-type:alpha" maskUnits="userSpaceOnUse" x="0" y="0" width="17" height="16">
<rect x="0.894897" width="16" height="16" fill="#D9D9D9"/>
</mask>
<g mask="url(#mask0_139_788)">
<path d="M2.22821 14.6667V2.66668C2.22821 2.30001 2.35877 1.98612 2.61988 1.72501C2.88099 1.4639 3.19488 1.33334 3.56154 1.33334H14.2282C14.5949 1.33334 14.9088 1.4639 15.1699 1.72501C15.431 1.98612 15.5615 2.30001 15.5615 2.66668V10.6667C15.5615 11.0333 15.431 11.3472 15.1699 11.6083C14.9088 11.8695 14.5949 12 14.2282 12H4.89488L2.22821 14.6667ZM3.56154 11.45L4.34488 10.6667H14.2282V2.66668H3.56154V11.45Z" fill="#1C1B1F"/>
</g>
</svg>
