<svg width="48" height="48" viewBox="0 0 48 48" fill="none" xmlns="http://www.w3.org/2000/svg">
<mask id="mask0_2_294" style="mask-type:alpha" maskUnits="userSpaceOnUse" x="0" y="0" width="48" height="48">
<rect width="48" height="48" fill="#D9D9D9"/>
</mask>
<g mask="url(#mask0_2_294)">
<path d="M9 44C8.2 44 7.5 43.7 6.9 43.1C6.3 42.5 6 41.8 6 41V10C6 9.2 6.3 8.5 6.9 7.9C7.5 7.3 8.2 7 9 7H12.25V4H15.5V7H32.5V4H35.75V7H39C39.8 7 40.5 7.3 41.1 7.9C41.7 8.5 42 9.2 42 10V41C42 41.8 41.7 42.5 41.1 43.1C40.5 43.7 39.8 44 39 44H9ZM9 41H39V19.5H9V41ZM9 16.5H39V10H9V16.5Z" fill="#1C1B1F"/>
</g>
</svg>
