<svg width="40" height="40" viewBox="0 0 40 40" fill="none" xmlns="http://www.w3.org/2000/svg">
<mask id="mask0_43_3624" style="mask-type:alpha" maskUnits="userSpaceOnUse" x="0" y="0" width="40" height="40">
<rect width="40" height="40" fill="#3DECAD"/>
</mask>
<g mask="url(#mask0_43_3624)">
<path d="M17.5278 26.75L29.4722 14.7778L27.5 12.8055L17.5278 22.8056L12.6389 17.9167L10.6667 19.8889L17.5278 26.75ZM7.77775 35C7.02775 35 6.37729 34.7245 5.82637 34.1736C5.27546 33.6227 5 32.9722 5 32.2222V7.77775C5 7.02775 5.27546 6.37729 5.82637 5.82637C6.37729 5.27546 7.02775 5 7.77775 5H32.2222C32.9722 5 33.6227 5.27546 34.1736 5.82637C34.7245 6.37729 35 7.02775 35 7.77775V32.2222C35 32.9722 34.7245 33.6227 34.1736 34.1736C33.6227 34.7245 32.9722 35 32.2222 35H7.77775Z" fill="#3DECAD"/>
</g>
</svg>
