<svg width="48" height="48" viewBox="0 0 48 48" fill="none" xmlns="http://www.w3.org/2000/svg">
<mask id="mask0_43_4016" style="mask-type:alpha" maskUnits="userSpaceOnUse" x="0" y="0" width="48" height="48">
<rect width="48" height="48" fill="#D9D9D9"/>
</mask>
<g mask="url(#mask0_43_4016)">
<path d="M13.15 34.85L27.65 27.7L34.8 13.2L20.3 20.35L13.15 34.85ZM24 26C23.4333 26 22.9583 25.8083 22.575 25.425C22.1917 25.0417 22 24.5667 22 24C22 23.4333 22.1917 22.9583 22.575 22.575C22.9583 22.1917 23.4333 22 24 22C24.5667 22 25.0417 22.1917 25.425 22.575C25.8083 22.9583 26 23.4333 26 24C26 24.5667 25.8083 25.0417 25.425 25.425C25.0417 25.8083 24.5667 26 24 26ZM24 44C21.2667 44 18.6833 43.475 16.25 42.425C13.8167 41.375 11.6917 39.9417 9.875 38.125C8.05833 36.3083 6.625 34.1833 5.575 31.75C4.525 29.3167 4 26.7333 4 24C4 21.2333 4.525 18.6333 5.575 16.2C6.625 13.7667 8.05833 11.65 9.875 9.85C11.6917 8.05 13.8167 6.625 16.25 5.575C18.6833 4.525 21.2667 4 24 4C26.7667 4 29.3667 4.525 31.8 5.575C34.2333 6.625 36.35 8.05 38.15 9.85C39.95 11.65 41.375 13.7667 42.425 16.2C43.475 18.6333 44 21.2333 44 24C44 26.7333 43.475 29.3167 42.425 31.75C41.375 34.1833 39.95 36.3083 38.15 38.125C36.35 39.9417 34.2333 41.375 31.8 42.425C29.3667 43.475 26.7667 44 24 44ZM24 41C28.7333 41 32.75 39.3417 36.05 36.025C39.35 32.7083 41 28.7 41 24C41 19.2667 39.35 15.25 36.05 11.95C32.75 8.65 28.7333 7 24 7C19.3 7 15.2917 8.65 11.975 11.95C8.65833 15.25 7 19.2667 7 24C7 28.7 8.65833 32.7083 11.975 36.025C15.2917 39.3417 19.3 41 24 41Z" fill="#1C1B1F"/>
</g>
</svg>
