<svg width="17" height="16" viewBox="0 0 17 16" fill="none" xmlns="http://www.w3.org/2000/svg">
<mask id="mask0_139_785" style="mask-type:alpha" maskUnits="userSpaceOnUse" x="0" y="0" width="17" height="16">
<rect x="0.143677" width="16" height="16" fill="#D9D9D9"/>
</mask>
<g mask="url(#mask0_139_785)">
<path d="M8.14366 14L7.17699 13.1333C6.05477 12.1222 5.12699 11.25 4.39366 10.5167C3.66032 9.78333 3.07699 9.125 2.64366 8.54166C2.21032 7.95833 1.90755 7.42222 1.73532 6.93333C1.5631 6.44444 1.47699 5.94444 1.47699 5.43333C1.47699 4.38888 1.82699 3.51666 2.52699 2.81666C3.22699 2.11666 4.09921 1.76666 5.14366 1.76666C5.72143 1.76666 6.27143 1.88888 6.79366 2.13333C7.31588 2.37777 7.76588 2.72222 8.14366 3.16666C8.52143 2.72222 8.97143 2.37777 9.49366 2.13333C10.0159 1.88888 10.5659 1.76666 11.1437 1.76666C12.1881 1.76666 13.0603 2.11666 13.7603 2.81666C14.4603 3.51666 14.8103 4.38888 14.8103 5.43333C14.8103 5.94444 14.7242 6.44444 14.552 6.93333C14.3798 7.42222 14.077 7.95833 13.6437 8.54166C13.2103 9.125 12.627 9.78333 11.8937 10.5167C11.1603 11.25 10.2325 12.1222 9.11032 13.1333L8.14366 14ZM8.14366 12.2C9.21032 11.2444 10.0881 10.425 10.777 9.74166C11.4659 9.05833 12.0103 8.46389 12.4103 7.95833C12.8103 7.45277 13.0881 7.00277 13.2437 6.60833C13.3992 6.21389 13.477 5.82222 13.477 5.43333C13.477 4.76666 13.2548 4.21111 12.8103 3.76666C12.3659 3.32222 11.8103 3.1 11.1437 3.1C10.6214 3.1 10.1381 3.24722 9.69366 3.54166C9.24921 3.83611 8.94366 4.21111 8.77699 4.66666H7.51032C7.34366 4.21111 7.0381 3.83611 6.59366 3.54166C6.14921 3.24722 5.66588 3.1 5.14366 3.1C4.47699 3.1 3.92143 3.32222 3.47699 3.76666C3.03255 4.21111 2.81032 4.76666 2.81032 5.43333C2.81032 5.82222 2.8881 6.21389 3.04366 6.60833C3.19921 7.00277 3.47699 7.45277 3.87699 7.95833C4.27699 8.46389 4.82143 9.05833 5.51032 9.74166C6.19921 10.425 7.07699 11.2444 8.14366 12.2Z" fill="#1C1B1F"/>
</g>
</svg>
