<svg width="48" height="48" viewBox="0 0 48 48" fill="none" xmlns="http://www.w3.org/2000/svg">
<mask id="mask0_2_136" style="mask-type:alpha" maskUnits="userSpaceOnUse" x="0" y="0" width="48" height="48">
<rect width="48" height="48" fill="#D9D9D9"/>
</mask>
<g mask="url(#mask0_2_136)">
<path d="M24 6L40 18V42H8V18L24 6ZM24.0059 29.5C25.5353 29.5 26.8333 28.9647 27.9 27.8941C28.9667 26.8235 29.5 25.5235 29.5 23.9941C29.5 22.4647 28.9647 21.1667 27.8941 20.1C26.8235 19.0333 25.5235 18.5 23.9941 18.5C22.4647 18.5 21.1667 19.0353 20.1 20.1059C19.0333 21.1765 18.5 22.4765 18.5 24.0059C18.5 25.5353 19.0353 26.8333 20.1059 27.9C21.1765 28.9667 22.4765 29.5 24.0059 29.5ZM24.0087 26.5C23.3029 26.5 22.7083 26.2613 22.225 25.7838C21.7417 25.3063 21.5 24.7146 21.5 24.0087C21.5 23.3029 21.7388 22.7083 22.2163 22.225C22.6937 21.7417 23.2854 21.5 23.9913 21.5C24.6971 21.5 25.2917 21.7388 25.775 22.2163C26.2583 22.6937 26.5 23.2854 26.5 23.9913C26.5 24.6971 26.2613 25.2917 25.7838 25.775C25.3063 26.2583 24.7146 26.5 24.0087 26.5ZM23.95 35.5C22.1167 35.5 20.3417 35.8 18.625 36.4C16.9083 37 15.3333 37.8667 13.9 39H34.05C32.5833 37.8667 30.9917 37 29.275 36.4C27.5583 35.8 25.7833 35.5 23.95 35.5ZM11 19.5V37.55C12.8 35.95 14.8086 34.7083 17.0258 33.825C19.243 32.9417 21.5511 32.5 23.95 32.5C26.3723 32.5 28.7029 32.95 30.9418 33.85C33.1806 34.75 35.2 36 37 37.6V19.5L24 9.75L11 19.5Z" fill="#1C1B1F"/>
</g>
</svg>
