<svg width="48" height="48" viewBox="0 0 48 48" fill="none" xmlns="http://www.w3.org/2000/svg">
<mask id="mask0_43_2073" style="mask-type:alpha" maskUnits="userSpaceOnUse" x="0" y="0" width="48" height="48">
<rect width="48" height="48" fill="#D9D9D9"/>
</mask>
<g mask="url(#mask0_43_2073)">
<path d="M8.34994 42C7.64994 42.1666 7.04161 41.9916 6.52494 41.475C6.00827 40.9583 5.83327 40.35 5.99994 39.65L7.79994 31.2L16.7999 40.2L8.34994 42ZM19.3999 38.5L9.49994 28.6L31.6499 6.44998C32.2166 5.88331 32.9166 5.59998 33.7499 5.59998C34.5833 5.59998 35.2833 5.88331 35.8499 6.44998L41.5499 12.15C42.1166 12.7166 42.3999 13.4166 42.3999 14.25C42.3999 15.0833 42.1166 15.7833 41.5499 16.35L19.3999 38.5Z" fill="white"/>
</g>
</svg>
