<svg width="20" height="20" viewBox="0 0 20 20" fill="none" xmlns="http://www.w3.org/2000/svg">
<mask id="mask0_139_707" style="mask-type:alpha" maskUnits="userSpaceOnUse" x="0" y="0" width="20" height="20">
<rect width="20" height="20" fill="white"/>
</mask>
<g mask="url(#mask0_139_707)">
<path d="M7.64583 18.3333L7.33333 15.7083C7.19444 15.625 7.04167 15.5347 6.875 15.4375C6.70833 15.3403 6.55556 15.25 6.41667 15.1667L3.97917 16.1875L1.625 12.125L3.70833 10.5417V9.45832L1.625 7.87499L3.97917 3.81249L6.41667 4.83332C6.55556 4.74999 6.70833 4.65971 6.875 4.56249C7.04167 4.46527 7.19444 4.37499 7.33333 4.29166L7.64583 1.66666H12.3542L12.6667 4.29166C12.8056 4.37499 12.9583 4.46527 13.125 4.56249C13.2917 4.65971 13.4444 4.74999 13.5833 4.83332L16.0208 3.81249L18.375 7.87499L16.3125 9.45832V10.5417L18.375 12.125L16.0208 16.1875L13.5833 15.1667C13.4444 15.25 13.2917 15.3403 13.125 15.4375C12.9583 15.5347 12.8056 15.625 12.6667 15.7083L12.3542 18.3333H7.64583ZM10 12.9792C10.8194 12.9792 11.5208 12.6875 12.1042 12.1042C12.6875 11.5208 12.9792 10.8194 12.9792 9.99999C12.9792 9.18055 12.6875 8.47916 12.1042 7.89582C11.5208 7.31249 10.8194 7.02082 10 7.02082C9.18056 7.02082 8.47917 7.31249 7.89583 7.89582C7.3125 8.47916 7.02083 9.18055 7.02083 9.99999C7.02083 10.8194 7.3125 11.5208 7.89583 12.1042C8.47917 12.6875 9.18056 12.9792 10 12.9792Z" fill="white"/>
</g>
</svg>
