<svg width="48" height="48" viewBox="0 0 48 48" fill="none" xmlns="http://www.w3.org/2000/svg">
<mask id="mask0_2_409" style="mask-type:alpha" maskUnits="userSpaceOnUse" x="0" y="0" width="48" height="48">
<rect width="48" height="48" fill="#D9D9D9"/>
</mask>
<g mask="url(#mask0_2_409)">
<path d="M8 42V18L24 6L40 18V42H8ZM24.0059 29.5C25.5353 29.5 26.8333 28.9647 27.9 27.8941C28.9667 26.8235 29.5 25.5235 29.5 23.9941C29.5 22.4647 28.9647 21.1667 27.8941 20.1C26.8235 19.0333 25.5235 18.5 23.9941 18.5C22.4647 18.5 21.1667 19.0353 20.1 20.1059C19.0333 21.1765 18.5 22.4765 18.5 24.0059C18.5 25.5353 19.0353 26.8333 20.1059 27.9C21.1765 28.9667 22.4765 29.5 24.0059 29.5ZM11 39H36.6C36.5333 38.5667 36.4917 38.1333 36.475 37.7C36.4583 37.2667 36.2667 36.9167 35.9 36.65C34.2 35.3167 32.3333 34.2917 30.3 33.575C28.2667 32.8583 26.15 32.5 23.95 32.5C21.7967 32.5 19.7084 32.85 17.6851 33.55C15.6617 34.25 13.8 35.2667 12.1 36.6C11.7333 36.8667 11.4583 37.2167 11.275 37.65C11.0917 38.0833 11 38.5333 11 39Z" fill="#1C1B1F"/>
</g>
</svg>
